<svg xmlns="http://www.w3.org/2000/svg" xmlns:xlink="http://www.w3.org/1999/xlink" viewBox="0 0 712 712"><defs><style>.cls-1{opacity:0.85;}.cls-2{fill:url(#linear-gradient);}.cls-3{fill:url(#linear-gradient-2);}.cls-4,.cls-8{fill:none;}.cls-5{fill:#424242;}.cls-6{fill:#545454;}.cls-7{fill:#262626;}.cls-8{stroke:#545454;stroke-miterlimit:10;stroke-width:10px;}</style><linearGradient id="linear-gradient" x1="153.56" y1="389.92" x2="248.83" y2="389.92" gradientTransform="matrix(-0.97, -0.24, -0.23, 0.94, 794.35, 76.27)" gradientUnits="userSpaceOnUse"><stop offset="0"/><stop offset="0.3" stop-color="#111010"/><stop offset="0.9" stop-color="#3c3b3b"/><stop offset="1" stop-color="#444343"/></linearGradient><linearGradient id="linear-gradient-2" x1="524.52" y1="376.45" x2="652" y2="376.45" gradientTransform="matrix(1, 0, 0, 1, 0, 0)" xlink:href="#linear-gradient"/></defs><g id="Layer_2" data-name="Layer 2"><g id="Layer_2-2" data-name="Layer 2" class="cls-1"><path class="cls-2" d="M564.69,270.67s-3.45,3.66-3.77,8.09c0,0-25,24.33-32.17,33.17,0,0-14.74-4.77-24.29-2.59,0,0-1-2.66-5.45-3.56,0,0,7.37-16.36-2.83-17.24,0,0-11.41-2.94-7.08,15.74,0,0-23.89,12.94.51,23.28L474.92,536l6.67,1.65,13.86-209.49s7.62,6.72,31.3,15.06c0,0,2.06,2.63,11.28-4.42,0,0,12.9-9,18.51-16.35S583,290.71,583,290.71l-4.24-25.22S570.93,268.52,564.69,270.67Z"/><path class="cls-3" d="M544.73,241.53s-15.45,6.18-7.72-10.82c0,0,10.82-15.45,21.63-18.54s26.28,9.27,21.64,30.91a5.48,5.48,0,0,0,3.09,4.63s6.18-4.63,9.28-4.63c0,0,1.54,0,4.63,3.09,0,0,4.64,1.54,4.64,3.09,0,0,4.64-4.64,4.64,3.09,0,0,1.54,2.87,0,4.53l.68,5.18-3.78-.44,4.64,4.64s4.64-1.55,7.73,0a5.37,5.37,0,0,0,3.09,1.55c1.55,0,4.64,3.09,4.64,3.09s3.09,0,4.63,1.54c0,0,3.09-1.54,4.64,0s10.82,4.64,12.36,10.82,12.37,29.37,3.09,66.46c0,0-6.18,17-27.81,15.45,0,0,3.09,3.09-4.64,6.19v6.18h.8a51.49,51.49,0,0,1-7,13.91,4.79,4.79,0,0,1-1.55,3.09s1.55,4.64-1.54,6.18v4.64s1.54,17,0,20.09c0,0,0,3.09-1.55,4.64,0,0,3.09,4.63,0,6.18,0,0,4.64,1.54,3.09,7.73,0,0,12.37,35.54,3.09,68h1.55s3.09,7.73,3.09,10.82v3.09a1.51,1.51,0,0,1,1.54,1.54c0,1.55-15.45,9.28-29.36,12.37,0,0-15.46,4.64-21.64-3.09v-1.55s20.09-10.82,23.18-18.54c0,0,1.55-1.55,4.64-7.73,0,0-3.09-4.64-3.09-12.37,0,0,1.55-30.91-3.09-37.09,0,0,0-3.09,1.54-4.64,0,0-3.09-1.54-4.63-1.54,0,0,1.54-1.55-3.09-4.64V444h-1.55s-6.18-21.64-3.09-26.28L567.92,427l-1.55,1.54c-1.54,1.55-3.09,6.18-4.64,7.73a5.37,5.37,0,0,1,1.55,3.09s1.55,4.64,1.55,6.18,6.18,17,4.63,38.64A54.67,54.67,0,0,1,571,495a4.79,4.79,0,0,1-1.55,3.09,31.41,31.41,0,0,1,1.55,7.73c0,3.09,3.09,3.09,3.09,9.27,0,0,3.09,4.64,0,4.64,0,0-18.55,4.63-37.09,0,0,0-13.91,0-12.37-4.64a96.48,96.48,0,0,1,17-7.73,79.77,79.77,0,0,0,7.73-4.63v-4.64l1.55-1.55V495l1.54-3.09s-3.09-1.55-3.09-7.73c0,0-4.64-24.73-4.64-30.91,0,0-3.09-3.09-1.54-6.18a3.39,3.39,0,0,1-1.55-4.64V440.9s-9.27-3.09,0-20.09c0,0,12.37-27.82,17-40.18l3.09-3.09s-3.09,6.18,1.55-97.37v-7.73s1.55-6.18,3.09-10.82c0,0-1.54,1.55-6.18,1.55l-3.09-3.09-4.64-6.18-3.09-1.55v-6.18Z"/></g><g id="Layer_7" data-name="Layer 7"><path class="cls-4" d="M79.55,491.91a18,18,0,0,1,18.52-3.57l141.79,53.59,49.85-23.5,76.22-44.65a11.88,11.88,0,0,1,6-1.64h6.85A11.86,11.86,0,0,1,385,473.9l90.32,55.35a10.82,10.82,0,0,1,2-.25l8-2,36.5-8c11.5-1,33.93,0,33.93,0,7.43-1,25.57,0,25.57,0l14-2c11-2,37-2,37-2,9,0,33.67,2.14,33.67,2.14v3.62A349.4,349.4,0,0,0,707,356C707,162.15,549.85,5,356,5S5,162.15,5,356A349.47,349.47,0,0,0,46.68,522Z"/><path class="cls-5" d="M83.57,564.39l125.14,56,75.84-69.52a18,18,0,0,1,18.52-3.57l118.7,44.86c-.76-4.66-1.44-8.2-1.44-8.2,4-12,10-15,10-15,2-13,6-16,6-16,7-8,13-11,13-11l9-5,2-1c2-1,8-2,8-2a10.57,10.57,0,0,1,7-4.75L385,473.9a11.86,11.86,0,0,0-6.21-1.76h-6.85a11.88,11.88,0,0,0-6,1.64l-76.22,44.65-49.85,23.5L98.07,488.34a18,18,0,0,0-18.52,3.57L46.68,522a351.59,351.59,0,0,0,26.15,41.39h6.25A11,11,0,0,1,83.57,564.39Z"/><path class="cls-6" d="M449.33,659l-1-1-1-3c-9-5-8-13-8-13a3.1,3.1,0,0,1-2-4l-14-24c1.27-2.52-.26-13.81-1.56-21.8l-118.7-44.86a18,18,0,0,0-18.52,3.57l-75.84,69.52-125.14-56a11,11,0,0,0-4.49-1H72.83C136.7,650.48,239.75,707,356,707a349.85,349.85,0,0,0,139.62-28.87C482.23,669.55,455.33,660,455.33,660A28,28,0,0,0,449.33,659Z"/><path class="cls-7" d="M632.33,515s-26,0-37,2l-14,2s-18.14-1-25.57,0c0,0-22.43-1-33.93,0l-36.5,8-8,2a10.82,10.82,0,0,0-2,.25,10.57,10.57,0,0,0-7,4.75s-6,1-8,2l-2,1-9,5s-6,3-13,11c0,0-4,3-6,16,0,0-6,3-10,15,0,0,.68,3.54,1.44,8.2,1.3,8,2.83,19.28,1.56,21.8l14,24a3.1,3.1,0,0,0,2,4s-1,8,8,13l1,3,1,1a28,28,0,0,1,6,1s26.9,9.55,40.29,18.13A352.39,352.39,0,0,0,666,520.76v-3.62S641.33,515,632.33,515Z"/><circle class="cls-8" cx="356" cy="356" r="351"/></g></g></svg>